<?xml version="1.0" encoding="UTF-8" standalone="no"?>
<svg
   xmlns:dc="http://purl.org/dc/elements/1.1/"
   xmlns:cc="http://creativecommons.org/ns#"
   xmlns:rdf="http://www.w3.org/1999/02/22-rdf-syntax-ns#"
   xmlns:svg="http://www.w3.org/2000/svg"
   xmlns="http://www.w3.org/2000/svg"
   xmlns:sodipodi="http://sodipodi.sourceforge.net/DTD/sodipodi-0.dtd"
   xmlns:inkscape="http://www.inkscape.org/namespaces/inkscape"
   width="22.81534cm"
   height="8.5374022cm"
   viewBox="843 2535 10265.309 3832.8907"
   version="1.1"
   id="svg105"
   sodipodi:docname="contol_adelanto.svg"
   inkscape:version="1.0.2 (e86c8708, 2021-01-15)">
  <metadata
     id="metadata111">
    <rdf:RDF>
      <cc:Work
         rdf:about="">
        <dc:format>image/svg+xml</dc:format>
        <dc:type
           rdf:resource="http://purl.org/dc/dcmitype/StillImage" />
        <dc:title></dc:title>
      </cc:Work>
    </rdf:RDF>
  </metadata>
  <defs
     id="defs109" />
  <sodipodi:namedview
     pagecolor="#ffffff"
     bordercolor="#666666"
     borderopacity="1"
     objecttolerance="10"
     gridtolerance="10"
     guidetolerance="10"
     inkscape:pageopacity="0"
     inkscape:pageshadow="2"
     inkscape:window-width="1607"
     inkscape:window-height="836"
     id="namedview107"
     showgrid="false"
     fit-margin-top="0"
     fit-margin-left="0"
     fit-margin-right="0"
     fit-margin-bottom="0"
     units="cm"
     inkscape:zoom="1.2473445"
     inkscape:cx="438.3253"
     inkscape:cy="159.03651"
     inkscape:window-x="0"
     inkscape:window-y="25"
     inkscape:window-maximized="0"
     inkscape:current-layer="svg105" />
  <g
     fill="none"
     id="g103"
     transform="translate(-12,-67.023607)">
    <!-- Text -->
    <text
       xml:space="preserve"
       x="5175"
       y="2745"
       fill="#000000"
       font-family="Times"
       font-style="normal"
       font-weight="normal"
       font-size="216px"
       text-anchor="middle"
       id="text10">Perturbaciones</text>
    <!-- Text -->
    <text
       xml:space="preserve"
       x="8347"
       y="3562"
       fill="#000000"
       font-family="Times"
       font-style="normal"
       font-weight="normal"
       font-size="216px"
       text-anchor="middle"
       id="text12">Proceso</text>
    <!-- Text -->
    <text
       xml:space="preserve"
       x="5310"
       y="3960"
       fill="#000000"
       font-family="Times"
       font-style="normal"
       font-weight="normal"
       font-size="216px"
       text-anchor="middle"
       id="text14">Elemento final</text>
    <!-- Text -->
    <text
       xml:space="preserve"
       x="5310"
       y="4290"
       fill="#000000"
       font-family="Times"
       font-style="normal"
       font-weight="normal"
       font-size="216px"
       text-anchor="middle"
       id="text16">de control</text>
    <!-- Line -->
    <rect
       x="4275"
       y="3555"
       width="2070"
       height="945"
       stroke="#000000"
       stroke-width="8px"
       id="rect18" />
    <!-- Text -->
    <text
       xml:space="preserve"
       x="3285"
       y="3510"
       fill="#000000"
       font-family="Times"
       font-style="normal"
       font-weight="normal"
       font-size="216px"
       text-anchor="middle"
       id="text20">Variable</text>
    <!-- Text -->
    <text
       xml:space="preserve"
       x="3285"
       y="3840"
       fill="#000000"
       font-family="Times"
       font-style="normal"
       font-weight="normal"
       font-size="216px"
       text-anchor="middle"
       id="text22">manipulable</text>
    <!-- Text -->
    <text
       xml:space="preserve"
       x="5310"
       y="5895"
       fill="#000000"
       font-family="Times"
       font-style="normal"
       font-weight="normal"
       font-size="216px"
       text-anchor="middle"
       id="text24">Controlador</text>
    <!-- Text -->
    <text
       xml:space="preserve"
       x="5310"
       y="6225"
       fill="#000000"
       font-family="Times"
       font-style="normal"
       font-weight="normal"
       font-size="216px"
       text-anchor="middle"
       id="text26">en adelanto</text>
    <!-- Line -->
    <rect
       x="4275"
       y="5490"
       width="2070"
       height="945"
       stroke="#000000"
       stroke-width="8px"
       id="rect28" />
    <!-- Line -->
    <rect
       x="1125"
       y="4680"
       width="1395"
       height="720"
       stroke="#000000"
       stroke-width="8px"
       id="rect30" />
    <!-- Text -->
    <text
       xml:space="preserve"
       x="1822"
       y="5137"
       fill="#000000"
       font-family="Times"
       font-style="normal"
       font-weight="normal"
       font-size="216px"
       text-anchor="middle"
       id="text32">Medidor</text>
    <!-- Text -->
    <text
       xml:space="preserve"
       x="10665"
       y="3420"
       fill="#000000"
       font-family="Times"
       font-style="normal"
       font-weight="normal"
       font-size="216px"
       text-anchor="middle"
       id="text34">Variable</text>
    <!-- Text -->
    <text
       xml:space="preserve"
       x="10665"
       y="3750"
       fill="#000000"
       font-family="Times"
       font-style="normal"
       font-weight="normal"
       font-size="216px"
       text-anchor="middle"
       id="text36">controlada</text>
    <!-- Line -->
    <defs
       id="defs41">
      <clipPath
         id="cp0">
        <path
           clip-rule="evenodd"
           d="M 843,2535 H 11303 V 6447 H 843 Z m 1032,1975 -30,30 -30,-30 23,177 h 14 z"
           id="path38" />
      </clipPath>
    </defs>
    <polyline
       points=" 1845,2880 1845,4680"
       clip-path="url(#cp0)"
       stroke="#000000"
       stroke-width="8px"
       stroke-dasharray="40, 40"
       id="polyline43" />
    <!-- Forward arrow to point 1845,4680 -->
    <polygon
       points="1845,4540 1815,4510 1845,4660 1875,4510 "
       stroke="#000000"
       stroke-width="8px"
       stroke-miterlimit="8"
       fill="#000000"
       id="polygon45" />
    <!-- Line -->
    <defs
       id="defs50">
      <clipPath
         id="cp1">
        <path
           clip-rule="evenodd"
           d="M 843,2535 H 11303 V 6447 H 843 Z m 1032,1975 -30,30 -30,-30 23,177 h 14 z m 5605,-1210 30,30 -30,30 177,-23 v -14 z"
           id="path47" />
      </clipPath>
    </defs>
    <polyline
       points=" 7650,3330 7200,3330 7200,2880 855,2880"
       clip-path="url(#cp1)"
       stroke="#000000"
       stroke-width="8px"
       id="polyline52" />
    <!-- Backward arrow to point 7650,3330 -->
    <polygon
       points="7510,3330 7480,3360 7630,3330 7480,3300 "
       stroke="#000000"
       stroke-width="8px"
       stroke-miterlimit="8"
       fill="#000000"
       id="polygon54" />
    <!-- Line -->
    <defs
       id="defs59">
      <clipPath
         id="cp2">
        <path
           clip-rule="evenodd"
           d="M 843,2535 H 11303 V 6447 H 843 Z m 8977,900 30,30 -30,30 177,-23 v -14 z m -2340,-135 30,30 -30,30 177,-23 v -14 z"
           id="path56" />
      </clipPath>
    </defs>
    <polyline
       points=" 9045,3465 9990,3465"
       clip-path="url(#cp2)"
       stroke="#000000"
       stroke-width="8px"
       id="polyline61" />
    <!-- Forward arrow to point 9990,3465 -->
    <polygon
       points="9850,3465 9820,3495 9970,3465 9820,3435 "
       stroke="#000000"
       stroke-width="8px"
       stroke-miterlimit="8"
       fill="#000000"
       id="polygon63" />
    <!-- Line -->
    <defs
       id="defs68">
      <clipPath
         id="cp3">
        <path
           clip-rule="evenodd"
           d="M 843,2535 H 11303 V 6447 H 843 Z m 8977,900 30,30 -30,30 177,-23 v -14 z m -2340,135 30,30 -30,30 177,-23 v -14 z"
           id="path65" />
      </clipPath>
    </defs>
    <polyline
       points=" 7650,3600 7200,3600 7200,4050 6345,4050"
       clip-path="url(#cp3)"
       stroke="#000000"
       stroke-width="8px"
       id="polyline70" />
    <!-- Backward arrow to point 7650,3600 -->
    <polygon
       points="7510,3600 7480,3630 7630,3600 7480,3570 "
       stroke="#000000"
       stroke-width="8px"
       stroke-miterlimit="8"
       fill="#000000"
       id="polygon72" />
    <!-- Line -->
    <defs
       id="defs77">
      <clipPath
         id="cp4">
        <path
           clip-rule="evenodd"
           d="M 843,2535 H 11303 V 6447 H 843 Z m 8977,900 30,30 -30,30 177,-23 v -14 z m -5715,585 30,30 -30,30 177,-23 v -14 z"
           id="path74" />
      </clipPath>
    </defs>
    <polyline
       points=" 4275,4050 3015,4050"
       clip-path="url(#cp4)"
       stroke="#000000"
       stroke-width="8px"
       id="polyline79" />
    <!-- Backward arrow to point 4275,4050 -->
    <polygon
       points="4135,4050 4105,4080 4255,4050 4105,4020 "
       stroke="#000000"
       stroke-width="8px"
       stroke-miterlimit="8"
       fill="#000000"
       id="polygon81" />
    <!-- Line -->
    <defs
       id="defs86">
      <clipPath
         id="cp5">
        <path
           clip-rule="evenodd"
           d="M 843,2535 H 11303 V 6447 H 843 Z m 3262,3420 30,30 -30,30 177,-23 v -14 z m 0,-1935 30,30 -30,30 177,-23 v -14 z"
           id="path83" />
      </clipPath>
    </defs>
    <polyline
       points=" 1845,5400 1845,5985 4275,5985"
       clip-path="url(#cp5)"
       stroke="#000000"
       stroke-width="8px"
       stroke-dasharray="40, 40"
       id="polyline88" />
    <!-- Forward arrow to point 4275,5985 -->
    <polygon
       points="4135,5985 4105,6015 4255,5985 4105,5955 "
       stroke="#000000"
       stroke-width="8px"
       stroke-miterlimit="8"
       fill="#000000"
       id="polygon90" />
    <!-- Line -->
    <defs
       id="defs95">
      <clipPath
         id="cp6">
        <path
           clip-rule="evenodd"
           d="M 843,2535 H 11303 V 6447 H 843 Z m 4437,2135 30,-30 30,30 -23,-177 h -14 z m -1175,-650 30,30 -30,30 177,-23 v -14 z"
           id="path92" />
      </clipPath>
    </defs>
    <polyline
       points=" 5310,5490 5310,4500"
       clip-path="url(#cp6)"
       stroke="#000000"
       stroke-width="8px"
       stroke-dasharray="40, 40"
       id="polyline97" />
    <!-- Forward arrow to point 5310,4500 -->
    <polygon
       points="5310,4640 5340,4670 5310,4520 5280,4670 "
       stroke="#000000"
       stroke-width="8px"
       stroke-miterlimit="8"
       fill="#000000"
       id="polygon99" />
    <!-- Line -->
    <rect
       x="7650"
       y="3105"
       width="1395"
       height="720"
       stroke="#000000"
       stroke-width="8px"
       id="rect101" />
  </g>
</svg>
