<?xml version="1.0" encoding="UTF-8" standalone="no"?>
<!-- Creator: fig2dev Version 3.2.8 -->
<!-- CreationDate: 2021-01-28 17:49:52 -->
<!-- Magnification: 1.05 -->
<svg	xmlns="http://www.w3.org/2000/svg"
	xmlns:xlink="http://www.w3.org/1999/xlink"
	width="847pt" height="302pt"
	viewBox="220 1398 13434 4779">
<g fill="none">
<!-- Line -->
<defs>
<clipPath id="cp0">
	<path clip-rule="evenodd" d="M 220,1398 H 13654 V 6177 H 220 z
		M 6576,2398 6546,2428 6516,2398 6538,2575 6552,2575z"/>
</clipPath>
</defs>
<polyline points=" 9191,1755 6552,1755 6545,2568" clip-path="url(#cp0)"
	stroke="#000000" stroke-width="8px" stroke-dasharray="40 40"/>
<!-- Forward arrow to point 6545,2568 -->
<polygon points=" 6516,2398 6545,2548 6576,2398 6546,2428 6516,2398"
	stroke="#000000" stroke-width="8px" stroke-miterlimit="8" fill="#000000"/>
<!-- Text -->
<text xml:space="preserve" x="3589" y="5104" fill="#000000" font-family="Times" font-style="normal" font-weight="normal" font-size="216" text-anchor="middle">de calor</text>
<!-- Text -->
<text xml:space="preserve" x="589" y="3054" fill="#000000" font-family="Times" font-style="normal" font-weight="normal" font-size="216" text-anchor="middle">Leche</text>
<!-- Text -->
<text xml:space="preserve" x="589" y="3384" fill="#000000" font-family="Times" font-style="normal" font-weight="normal" font-size="216" text-anchor="middle">cruda</text>
<!-- Text -->
<text xml:space="preserve" x="688" y="3974" fill="#000000" font-family="Times" font-style="normal" font-weight="normal" font-size="216" text-anchor="middle">Agua</text>
<!-- Text -->
<text xml:space="preserve" x="688" y="4304" fill="#000000" font-family="Times" font-style="normal" font-weight="normal" font-size="216" text-anchor="middle">fría</text>
<!-- Line -->
<polyline points=" 6533,3120 6235,2970 6235,3270 6533,3120"
	stroke="#000000" stroke-width="8px"/>
<!-- Line -->
<polyline points=" 6533,3120 6833,2970 6833,3270 6533,3120"
	stroke="#000000" stroke-width="8px"/>
<!-- Line -->
<polyline points=" 6533,3120 6533,2730"
	stroke="#000000" stroke-width="8px"/>
<!-- Arc -->
<path d="M 6325,2730 A 221 221 0 0 1 6743 2730"
	stroke="#000000" stroke-width="8px"/>
<!-- Line -->
<polyline points=" 6743,2730 6325,2730"
	stroke="#000000" stroke-width="8px"/>
<!-- Line -->
<rect x="9191" y="1410" width="1680" height="705"
	stroke="#000000" stroke-width="8px"/>
<!-- Text -->
<text xml:space="preserve" x="10031" y="1860" fill="#000000" font-family="Times" font-style="normal" font-weight="normal" font-size="216" text-anchor="middle">Controlador</text>
<!-- Line -->
<rect x="7530" y="5110" width="1680" height="705"
	stroke="#000000" stroke-width="8px"/>
<!-- Text -->
<text xml:space="preserve" x="8370" y="5537" fill="#000000" font-family="Times" font-style="normal" font-weight="normal" font-size="216" text-anchor="middle">Termómetro</text>
<!-- Text -->
<text xml:space="preserve" x="6030" y="5756" fill="#000000" font-family="Times" font-style="normal" font-weight="normal" font-size="216" text-anchor="middle">Temperatura de la</text>
<!-- Text -->
<text xml:space="preserve" x="6030" y="6086" fill="#000000" font-family="Times" font-style="normal" font-weight="normal" font-size="216" text-anchor="middle">leche pasteurizada</text>
<!-- Text -->
<text xml:space="preserve" x="11520" y="3818" fill="#000000" font-family="Times" font-style="normal" font-weight="normal" font-size="216" text-anchor="middle">Temperatura medida de</text>
<!-- Text -->
<text xml:space="preserve" x="11520" y="4148" fill="#000000" font-family="Times" font-style="normal" font-weight="normal" font-size="216" text-anchor="middle">la leche pasteurizada</text>
<!-- Text -->
<text xml:space="preserve" x="12870" y="1650" fill="#000000" font-family="Times" font-style="normal" font-weight="normal" font-size="216" text-anchor="middle">Temperatura</text>
<!-- Text -->
<text xml:space="preserve" x="12870" y="1980" fill="#000000" font-family="Times" font-style="normal" font-weight="normal" font-size="216" text-anchor="middle">deseada</text>
<!-- Text -->
<text xml:space="preserve" x="8607" y="3042" fill="#000000" font-family="Times" font-style="normal" font-weight="normal" font-size="216" text-anchor="middle">Agua</text>
<!-- Text -->
<text xml:space="preserve" x="8607" y="3372" fill="#000000" font-family="Times" font-style="normal" font-weight="normal" font-size="216" text-anchor="middle">caliente</text>
<!-- Text -->
<text xml:space="preserve" x="6996" y="3945" fill="#000000" font-family="Times" font-style="normal" font-weight="normal" font-size="216" text-anchor="middle">Leche</text>
<!-- Text -->
<text xml:space="preserve" x="6996" y="4275" fill="#000000" font-family="Times" font-style="normal" font-weight="normal" font-size="216" text-anchor="middle">pasteurizada</text>
<!-- Line -->
<rect x="2385" y="2700" width="2430" height="1755"
	stroke="#000000" stroke-width="8px"/>
<!-- Line -->
<defs>
<clipPath id="cp1">
	<path clip-rule="evenodd" d="M 220,1398 H 13654 V 6177 H 220 z
		M 6576,2398 6546,2428 6516,2398 6538,2575 6552,2575z
		M 1160,4057 1130,4027 1160,3997 983,4020 983,4034z"/>
</clipPath>
</defs>
<polyline points=" 990,4027 2385,4027" clip-path="url(#cp1)"
	stroke="#000000" stroke-width="8px"/>
<!-- Backward arrow to point 990,4027 -->
<polygon points=" 1160,3997 1010,4027 1160,4057 1130,4027 1160,3997"
	stroke="#000000" stroke-width="8px" stroke-miterlimit="8" fill="#000000"/>
<!-- Line -->
<defs>
<clipPath id="cp2">
	<path clip-rule="evenodd" d="M 220,1398 H 13654 V 6177 H 220 z
		M 6576,2398 6546,2428 6516,2398 6538,2575 6552,2575z
		M 4985,3157 4955,3127 4985,3097 4808,3120 4808,3134z"/>
</clipPath>
</defs>
<polyline points=" 4815,3127 6232,3127" clip-path="url(#cp2)"
	stroke="#000000" stroke-width="8px"/>
<!-- Backward arrow to point 4815,3127 -->
<polygon points=" 4985,3097 4835,3127 4985,3157 4955,3127 4985,3097"
	stroke="#000000" stroke-width="8px" stroke-miterlimit="8" fill="#000000"/>
<!-- Line -->
<defs>
<clipPath id="cp3">
	<path clip-rule="evenodd" d="M 220,1398 H 13654 V 6177 H 220 z
		M 6576,2398 6546,2428 6516,2398 6538,2575 6552,2575z
		M 11034,1788 11004,1758 11034,1728 10857,1751 10857,1765z"/>
</clipPath>
</defs>
<polyline points=" 10864,1758 12083,1758" clip-path="url(#cp3)"
	stroke="#000000" stroke-width="8px" stroke-dasharray="40 40"/>
<!-- Backward arrow to point 10864,1758 -->
<polygon points=" 11034,1728 10884,1758 11034,1788 11004,1758 11034,1728"
	stroke="#000000" stroke-width="8px" stroke-miterlimit="8" fill="#000000"/>
<!-- Text -->
<text xml:space="preserve" x="3589" y="4774" fill="#000000" font-family="Times" font-style="normal" font-weight="normal" font-size="216" text-anchor="middle">Intercambiador</text>
<!-- Line -->
<defs>
<clipPath id="cp4">
	<path clip-rule="evenodd" d="M 220,1398 H 13654 V 6177 H 220 z
		M 6576,2398 6546,2428 6516,2398 6538,2575 6552,2575z
		M 6995,3157 6965,3127 6995,3097 6818,3120 6818,3134z"/>
</clipPath>
</defs>
<polyline points=" 6825,3127 8109,3127" clip-path="url(#cp4)"
	stroke="#000000" stroke-width="8px"/>
<!-- Backward arrow to point 6825,3127 -->
<polygon points=" 6995,3097 6845,3127 6995,3157 6965,3127 6995,3097"
	stroke="#000000" stroke-width="8px" stroke-miterlimit="8" fill="#000000"/>
<!-- Line -->
<defs>
<clipPath id="cp5">
	<path clip-rule="evenodd" d="M 220,1398 H 13654 V 6177 H 220 z
		M 2215,3097 2245,3127 2215,3157 2392,3134 2392,3120z
		M 6995,3157 6965,3127 6995,3097 6818,3120 6818,3134z"/>
</clipPath>
</defs>
<polyline points=" 990,3127 2385,3127" clip-path="url(#cp5)"
	stroke="#000000" stroke-width="8px"/>
<!-- Forward arrow to point 2385,3127 -->
<polygon points=" 2215,3157 2365,3127 2215,3097 2245,3127 2215,3157"
	stroke="#000000" stroke-width="8px" stroke-miterlimit="8" fill="#000000"/>
<!-- Line -->
<defs>
<clipPath id="cp6">
	<path clip-rule="evenodd" d="M 220,1398 H 13654 V 6177 H 220 z
		M 6085,4000 6115,4030 6085,4060 6262,4037 6262,4023z
		M 6995,3157 6965,3127 6995,3097 6818,3120 6818,3134z"/>
</clipPath>
</defs>
<polyline points=" 4815,4027 6255,4030" clip-path="url(#cp6)"
	stroke="#000000" stroke-width="8px"/>
<!-- Forward arrow to point 6255,4030 -->
<polygon points=" 6085,4060 6235,4030 6085,4000 6115,4030 6085,4060"
	stroke="#000000" stroke-width="8px" stroke-miterlimit="8" fill="#000000"/>
<!-- Line -->
<defs>
<clipPath id="cp7">
	<path clip-rule="evenodd" d="M 220,1398 H 13654 V 6177 H 220 z
		M 7357,5420 7387,5450 7357,5480 7534,5457 7534,5443z
		M 6995,3157 6965,3127 6995,3097 6818,3120 6818,3134z"/>
</clipPath>
</defs>
<polyline points=" 5434,4033 5434,5450 7527,5450" clip-path="url(#cp7)"
	stroke="#000000" stroke-width="8px" stroke-dasharray="40 40"/>
<!-- Forward arrow to point 7527,5450 -->
<polygon points=" 7357,5480 7507,5450 7357,5420 7387,5450 7357,5480"
	stroke="#000000" stroke-width="8px" stroke-miterlimit="8" fill="#000000"/>
<!-- Line -->
<defs>
<clipPath id="cp8">
	<path clip-rule="evenodd" d="M 220,1398 H 13654 V 6177 H 220 z
		M 9994,2288 10024,2258 10054,2288 10031,2111 10017,2111z
		M 6995,3157 6965,3127 6995,3097 6818,3120 6818,3134z"/>
</clipPath>
</defs>
<polyline points=" 9207,5447 10024,5447 10024,2118" clip-path="url(#cp8)"
	stroke="#000000" stroke-width="8px" stroke-dasharray="40 40"/>
<!-- Forward arrow to point 10024,2118 -->
<polygon points=" 10054,2288 10024,2138 9994,2288 10024,2258 10054,2288"
	stroke="#000000" stroke-width="8px" stroke-miterlimit="8" fill="#000000"/>
<!-- Line -->
<defs>
<clipPath id="cp9">
	<path clip-rule="evenodd" d="M 220,1398 H 13654 V 6177 H 220 z
		M 4640,3998 4670,4029 4640,4058 4817,4036 4817,4022z
		M 6995,3157 6965,3127 6995,3097 6818,3120 6818,3134z"/>
</clipPath>
</defs>
<polyline points=" 2375,3125 2701,3127 4511,4028 4810,4029" clip-path="url(#cp9)"
	stroke="#000000" stroke-width="8px"/>
<!-- Forward arrow to point 4810,4029 -->
<polygon points=" 4640,4058 4790,4029 4640,3998 4670,4029 4640,4058"
	stroke="#000000" stroke-width="8px" stroke-miterlimit="8" fill="#000000"/>
<!-- Line -->
<defs>
<clipPath id="cp10">
	<path clip-rule="evenodd" d="M 220,1398 H 13654 V 6177 H 220 z
		M 4640,3998 4670,4029 4640,4058 4817,4036 4817,4022z
		M 2544,4058 2515,4028 2545,3998 2368,4019 2368,4033z"/>
</clipPath>
</defs>
<polyline points=" 2375,4026 2701,4030 4511,3123 4810,3122" clip-path="url(#cp10)"
	stroke="#000000" stroke-width="8px"/>
<!-- Backward arrow to point 2375,4026 -->
<polygon points=" 2545,3998 2395,4026 2544,4058 2515,4028 2545,3998"
	stroke="#000000" stroke-width="8px" stroke-miterlimit="8" fill="#000000"/>
</g>
</svg>
