<?xml version="1.0" encoding="UTF-8" standalone="no"?>
<svg
   xmlns:dc="http://purl.org/dc/elements/1.1/"
   xmlns:cc="http://creativecommons.org/ns#"
   xmlns:rdf="http://www.w3.org/1999/02/22-rdf-syntax-ns#"
   xmlns:svg="http://www.w3.org/2000/svg"
   xmlns="http://www.w3.org/2000/svg"
   xmlns:sodipodi="http://sodipodi.sourceforge.net/DTD/sodipodi-0.dtd"
   xmlns:inkscape="http://www.inkscape.org/namespaces/inkscape"
   width="22.471945cm"
   height="11.571111cm"
   viewBox="791 2040 10107 5206"
   version="1.1"
   id="svg1156"
   sodipodi:docname="contol_feedback.svg"
   inkscape:version="1.0.2 (e86c8708, 2021-01-15)">
  <metadata
     id="metadata1162">
    <rdf:RDF>
      <cc:Work
         rdf:about="">
        <dc:format>image/svg+xml</dc:format>
        <dc:type
           rdf:resource="http://purl.org/dc/dcmitype/StillImage" />
        <dc:title></dc:title>
      </cc:Work>
    </rdf:RDF>
  </metadata>
  <defs
     id="defs1160" />
  <sodipodi:namedview
     pagecolor="#ffffff"
     bordercolor="#666666"
     borderopacity="1"
     objecttolerance="10"
     gridtolerance="10"
     guidetolerance="10"
     inkscape:pageopacity="0"
     inkscape:pageshadow="2"
     inkscape:window-width="1261"
     inkscape:window-height="818"
     id="namedview1158"
     showgrid="false"
     units="cm"
     inkscape:zoom="1.2904239"
     inkscape:cx="424.66667"
     inkscape:cy="218.66667"
     inkscape:window-x="0"
     inkscape:window-y="25"
     inkscape:window-maximized="0"
     inkscape:current-layer="svg1156" />
  <g
     fill="none"
     id="g1154">
    <!-- Text -->
    <text
       xml:space="preserve"
       x="7605"
       y="2250"
       fill="#000000"
       font-family="Times"
       font-style="normal"
       font-weight="normal"
       font-size="216px"
       text-anchor="middle"
       id="text1050">Perturbacion</text>
    <!-- Text -->
    <text
       xml:space="preserve"
       x="7627"
       y="3787"
       fill="#000000"
       font-family="Times"
       font-style="normal"
       font-weight="normal"
       font-size="216px"
       text-anchor="middle"
       id="text1052">Proceso</text>
    <!-- Text -->
    <text
       xml:space="preserve"
       x="4635"
       y="3645"
       fill="#000000"
       font-family="Times"
       font-style="normal"
       font-weight="normal"
       font-size="216px"
       text-anchor="middle"
       id="text1054">Elemento final</text>
    <!-- Text -->
    <text
       xml:space="preserve"
       x="4635"
       y="3975"
       fill="#000000"
       font-family="Times"
       font-style="normal"
       font-weight="normal"
       font-size="216px"
       text-anchor="middle"
       id="text1056">de control</text>
    <!-- Line -->
    <rect
       x="3600"
       y="3240"
       width="2070"
       height="945"
       stroke="#000000"
       stroke-width="8px"
       id="rect1058" />
    <!-- Text -->
    <text
       xml:space="preserve"
       x="1530"
       y="3645"
       fill="#000000"
       font-family="Times"
       font-style="normal"
       font-weight="normal"
       font-size="216px"
       text-anchor="middle"
       id="text1060">Variable</text>
    <!-- Text -->
    <text
       xml:space="preserve"
       x="1530"
       y="3975"
       fill="#000000"
       font-family="Times"
       font-style="normal"
       font-weight="normal"
       font-size="216px"
       text-anchor="middle"
       id="text1062">manipulable</text>
    <!-- Text -->
    <text
       xml:space="preserve"
       x="10260"
       y="3645"
       fill="#000000"
       font-family="Times"
       font-style="normal"
       font-weight="normal"
       font-size="216px"
       text-anchor="middle"
       id="text1064">Variable</text>
    <!-- Text -->
    <text
       xml:space="preserve"
       x="10260"
       y="3975"
       fill="#000000"
       font-family="Times"
       font-style="normal"
       font-weight="normal"
       font-size="216px"
       text-anchor="middle"
       id="text1066">controlada</text>
    <!-- Line -->
    <rect
       x="8235"
       y="5085"
       width="1395"
       height="720"
       stroke="#000000"
       stroke-width="8px"
       id="rect1068" />
    <!-- Text -->
    <text
       xml:space="preserve"
       x="8932"
       y="5542"
       fill="#000000"
       font-family="Times"
       font-style="normal"
       font-weight="normal"
       font-size="216px"
       text-anchor="middle"
       id="text1070">Medidor</text>
    <!-- Text -->
    <text
       xml:space="preserve"
       x="4636"
       y="5400"
       fill="#000000"
       font-family="Times"
       font-style="normal"
       font-weight="normal"
       font-size="216px"
       text-anchor="middle"
       id="text1072">Controlador por</text>
    <!-- Text -->
    <text
       xml:space="preserve"
       x="4636"
       y="5730"
       fill="#000000"
       font-family="Times"
       font-style="normal"
       font-weight="normal"
       font-size="216px"
       text-anchor="middle"
       id="text1074">retroalimentacion</text>
    <!-- Line -->
    <rect
       x="3555"
       y="4995"
       width="2160"
       height="945"
       stroke="#000000"
       stroke-width="8px"
       id="rect1076" />
    <!-- Line -->
    <defs
       id="defs1081">
      <clipPath
         id="cp0">
        <path
           clip-rule="evenodd"
           d="M 791,2040 H 10898 V 7246 H 791 Z m 2639,1665 30,30 -30,30 177,-23 v -14 z"
           id="path1078" />
      </clipPath>
    </defs>
    <polyline
       points=" 3600,3735 2340,3735"
       clip-path="url(#cp0)"
       stroke="#000000"
       stroke-width="8px"
       id="polyline1083" />
    <!-- Backward arrow to point 3600,3735 -->
    <polygon
       points="3580,3735 3430,3705 3460,3735 3430,3765 "
       stroke="#000000"
       stroke-width="8px"
       stroke-miterlimit="8"
       fill="#000000"
       id="polygon1085" />
    <!-- Line -->
    <defs
       id="defs1090">
      <clipPath
         id="cp1">
        <path
           clip-rule="evenodd"
           d="M 791,2040 H 10898 V 7246 H 791 Z m 5969,1665 30,30 -30,30 177,-23 v -14 z"
           id="path1087" />
      </clipPath>
    </defs>
    <polyline
       points=" 6930,3735 5670,3735"
       clip-path="url(#cp1)"
       stroke="#000000"
       stroke-width="8px"
       id="polyline1092" />
    <!-- Backward arrow to point 6930,3735 -->
    <polygon
       points="6910,3735 6760,3705 6790,3735 6760,3765 "
       stroke="#000000"
       stroke-width="8px"
       stroke-miterlimit="8"
       fill="#000000"
       id="polygon1094" />
    <!-- Line -->
    <defs
       id="defs1099">
      <clipPath
         id="cp2">
        <path
           clip-rule="evenodd"
           d="M 791,2040 H 10898 V 7246 H 791 Z m 8624,1665 30,30 -30,30 177,-23 v -14 z"
           id="path1096" />
      </clipPath>
    </defs>
    <polyline
       points=" 9585,3735 8325,3735"
       clip-path="url(#cp2)"
       stroke="#000000"
       stroke-width="8px"
       id="polyline1101" />
    <!-- Backward arrow to point 9585,3735 -->
    <polygon
       points="9565,3735 9415,3705 9445,3735 9415,3765 "
       stroke="#000000"
       stroke-width="8px"
       stroke-miterlimit="8"
       fill="#000000"
       id="polygon1103" />
    <!-- Line -->
    <defs
       id="defs1108">
      <clipPath
         id="cp3">
        <path
           clip-rule="evenodd"
           d="M 791,2040 H 10898 V 7246 H 791 Z m 8149,2875 -30,30 -30,-30 23,177 h 14 z m 475,-1210 30,30 -30,30 177,-23 v -14 z"
           id="path1105" />
      </clipPath>
    </defs>
    <polyline
       points=" 8910,3735 8910,5085"
       clip-path="url(#cp3)"
       stroke="#000000"
       stroke-width="8px"
       stroke-dasharray="40, 40"
       id="polyline1110" />
    <!-- Forward arrow to point 8910,5085 -->
    <polygon
       points="8910,5065 8940,4915 8910,4945 8880,4915 "
       stroke="#000000"
       stroke-width="8px"
       stroke-miterlimit="8"
       fill="#000000"
       id="polygon1112" />
    <!-- Line -->
    <defs
       id="defs1117">
      <clipPath
         id="cp4">
        <path
           clip-rule="evenodd"
           d="M 791,2040 H 10898 V 7246 H 791 Z m 8149,2875 -30,30 -30,-30 23,177 h 14 z m -4380,1195 30,-30 30,30 -23,-177 h -14 z"
           id="path1114" />
      </clipPath>
    </defs>
    <polyline
       points=" 4590,5940 4590,6885"
       clip-path="url(#cp4)"
       stroke="#000000"
       stroke-width="8px"
       stroke-dasharray="40, 40"
       id="polyline1119" />
    <!-- Backward arrow to point 4590,5940 -->
    <polygon
       points="4590,5960 4560,6110 4590,6080 4620,6110 "
       stroke="#000000"
       stroke-width="8px"
       stroke-miterlimit="8"
       fill="#000000"
       id="polygon1121" />
    <!-- Line -->
    <defs
       id="defs1126">
      <clipPath
         id="cp5">
        <path
           clip-rule="evenodd"
           d="M 791,2040 H 10898 V 7246 H 791 Z m 5094,3435 -30,-30 30,-30 -177,23 v 14 z m -1325,635 30,-30 30,30 -23,-177 h -14 z"
           id="path1123" />
      </clipPath>
    </defs>
    <polyline
       points=" 8235,5445 5715,5445"
       clip-path="url(#cp5)"
       stroke="#000000"
       stroke-width="8px"
       stroke-dasharray="40, 40"
       id="polyline1128" />
    <!-- Forward arrow to point 5715,5445 -->
    <polygon
       points="5735,5445 5885,5475 5855,5445 5885,5415 "
       stroke="#000000"
       stroke-width="8px"
       stroke-miterlimit="8"
       fill="#000000"
       id="polygon1130" />
    <!-- Line -->
    <defs
       id="defs1135">
      <clipPath
         id="cp6">
        <path
           clip-rule="evenodd"
           d="M 791,2040 H 10898 V 7246 H 791 Z m 3769,2315 30,-30 30,30 -23,-177 h -14 z m 0,1755 30,-30 30,30 -23,-177 h -14 z"
           id="path1132" />
      </clipPath>
    </defs>
    <polyline
       points=" 4590,4995 4590,4185"
       clip-path="url(#cp6)"
       stroke="#000000"
       stroke-width="8px"
       stroke-dasharray="40, 40"
       id="polyline1137" />
    <!-- Forward arrow to point 4590,4185 -->
    <polygon
       points="4590,4205 4560,4355 4590,4325 4620,4355 "
       stroke="#000000"
       stroke-width="8px"
       stroke-miterlimit="8"
       fill="#000000"
       id="polygon1139" />
    <!-- Line -->
    <defs
       id="defs1144">
      <clipPath
         id="cp7">
        <path
           clip-rule="evenodd"
           d="M 791,2040 H 10898 V 7246 H 791 Z m 3769,2315 30,-30 30,30 -23,-177 h -14 z m 3075,-1195 -30,30 -30,-30 23,177 h 14 z"
           id="path1141" />
      </clipPath>
    </defs>
    <polyline
       points=" 7605,3330 7605,2385"
       clip-path="url(#cp7)"
       stroke="#000000"
       stroke-width="8px"
       id="polyline1146" />
    <!-- Backward arrow to point 7605,3330 -->
    <polygon
       points="7605,3310 7635,3160 7605,3190 7575,3160 "
       stroke="#000000"
       stroke-width="8px"
       stroke-miterlimit="8"
       fill="#000000"
       id="polygon1148" />
    <!-- Text -->
    <text
       xml:space="preserve"
       x="4590"
       y="7155"
       fill="#000000"
       font-family="Times"
       font-style="normal"
       font-weight="normal"
       font-size="216px"
       text-anchor="middle"
       id="text1150">Consigna</text>
    <!-- Line -->
    <rect
       x="6930"
       y="3330"
       width="1395"
       height="720"
       stroke="#000000"
       stroke-width="8px"
       id="rect1152" />
  </g>
</svg>
